# xmcd CD database file
#
# Track frame offsets:
#	150
#	19156
#	47042
#	72862
#	96901
#	125013
#	169302
#	185221
#	189327
#	192360
#	200311
#	213480
#	223400
#	249587
#	261308
#	282772
#
# Disc length: 3851 seconds
#
# Revision: 0
# Processed by: cddbd v1.5.2PL0 Copyright (c) Steve Scherf et al.
# Submitted via: CDex 1.51
#
DISCID=030f0910
DTITLE=Ohio State University Wind Symphony - Winds of Nagual
DYEAR=2006
DGENRE=Wind Band
TTITLE0=Antonin Dvorak - Serenade Op. 22 I. Moderato
TTITLE1=Antonin Dvorak - Serenade Op. 22 II. Tempo di Valse
TTITLE2=Antonin Dvorak - Serenade Op. 22 III. Scherzo
TTITLE3=Antonin Dvorak - Serenade Op. 22 IV. Larghetto
TTITLE4=Antonin Dvorak - Serenade Op. 22 V. Finale
TTITLE5=David Gillingham - No Shadow of Turning
TTITLE6=Michael Colgrass - Winds of Nagual I. The Desert
TTITLE7=Michael Colgrass - Winds of Nagual II. Carlos meets Don Juan
TTITLE8=Michael Colgrass - Winds of Nagual III. Don Gennaro appears
TTITLE9=Michael Colgrass - Winds of Nagual IV. Don Gennaro satirizes Carlos
TTITLE10=Michael Colgrass - Winds of Nagual V. Carlos stares at the water and becomes a bubble
TTITLE11=Michael Colgrass - Winds of Nagual VI. The gait of power
TTITLE12=Michael Colgrass - Winds of Nagual VII. Asking twilight for calmness and power
TTITLE13=Michael Colgrass - Winds of Nagual VIII. Don Juan clowns for Carlos
TTITLE14=Michael Colgrass - Winds of Nagual IX. Last conversation and farewell
TTITLE15=Nikolay Rimsky-Korsakov - The Flight of the Bumblebee
EXTD=YEAR: 2006
EXTT0=
EXTT1=
EXTT2=
EXTT3=
EXTT4=
EXTT5=
EXTT6=
EXTT7=
EXTT8=
EXTT9=
EXTT10=
EXTT11=
EXTT12=
EXTT13=
EXTT14=
EXTT15=
PLAYORDER=
